<?xml version="1.0" encoding="UTF-8" standalone="no"?>
<!DOCTYPE svg PUBLIC "-//W3C//DTD SVG 1.1//EN"
 "http://www.w3.org/Graphics/SVG/1.1/DTD/svg11.dtd">
<!-- Generated by graphviz version 2.43.0 (0)
 -->
<!-- Title: G Pages: 1 -->
<svg width="426pt" height="562pt"
 viewBox="0.00 0.00 426.00 562.00" xmlns="http://www.w3.org/2000/svg" xmlns:xlink="http://www.w3.org/1999/xlink">
<g id="graph0" class="graph" transform="scale(1 1) rotate(0) translate(4 558)">
<title>G</title>
<polygon fill="white" stroke="transparent" points="-4,4 -4,-558 422,-558 422,4 -4,4"/>
<!-- table -->
<g id="node1" class="node">
<title>table</title>
<polygon fill="#392250" stroke="transparent" points="9,-532 9,-549 409,-549 409,-532 9,-532"/>
<text text-anchor="start" x="11" y="-538.4" font-family="Times,serif" font-weight="bold" font-size="12.00" fill="WHITE">REPORTE MBR</text>
<polygon fill="WHITE" stroke="transparent" points="9,-515 9,-532 209,-532 209,-515 9,-515"/>
<text text-anchor="start" x="75.5" y="-521.4" font-family="Times,serif" font-weight="bold" font-size="12.00">mbr_tamano</text>
<polygon fill="WHITE" stroke="transparent" points="209,-515 209,-532 409,-532 409,-515 209,-515"/>
<text text-anchor="start" x="287.5" y="-521.4" font-family="Times,serif" font-weight="bold" font-size="12.00">3072000</text>
<polygon fill="WHITE" stroke="transparent" points="9,-498 9,-515 209,-515 209,-498 9,-498"/>
<text text-anchor="start" x="57" y="-504.4" font-family="Times,serif" font-weight="bold" font-size="12.00">mbr_fecha_creacion</text>
<polygon fill="WHITE" stroke="transparent" points="209,-498 209,-515 409,-515 409,-498 209,-498"/>
<text text-anchor="start" x="254.5" y="-504.4" font-family="Times,serif" font-weight="bold" font-size="12.00">2024/02/20 (22:14:46)</text>
<polygon fill="WHITE" stroke="transparent" points="9,-481 9,-498 209,-498 209,-481 9,-481"/>
<text text-anchor="start" x="57.5" y="-487.4" font-family="Times,serif" font-weight="bold" font-size="12.00">mbr_disk_signature</text>
<polygon fill="WHITE" stroke="transparent" points="209,-481 209,-498 409,-498 409,-481 209,-481"/>
<text text-anchor="start" x="290.5" y="-487.4" font-family="Times,serif" font-weight="bold" font-size="12.00">740660</text>
<polygon fill="#392250" stroke="transparent" points="9,-464 9,-481 409,-481 409,-464 9,-464"/>
<text text-anchor="start" x="11" y="-470.4" font-family="Times,serif" font-weight="bold" font-size="12.00" fill="WHITE">Partition</text>
<polygon fill="WHITE" stroke="transparent" points="9,-447 9,-464 209,-464 209,-447 9,-447"/>
<text text-anchor="start" x="80" y="-453.4" font-family="Times,serif" font-weight="bold" font-size="12.00">part_status</text>
<polygon fill="WHITE" stroke="transparent" points="209,-447 209,-464 409,-464 409,-447 209,-447"/>
<text text-anchor="start" x="305.5" y="-453.4" font-family="Times,serif" font-weight="bold" font-size="12.00">0</text>
<polygon fill="WHITE" stroke="transparent" points="9,-430 9,-447 209,-447 209,-430 9,-430"/>
<text text-anchor="start" x="84" y="-436.4" font-family="Times,serif" font-weight="bold" font-size="12.00">part_type</text>
<polygon fill="WHITE" stroke="transparent" points="209,-430 209,-447 409,-447 409,-430 209,-430"/>
<text text-anchor="start" x="305" y="-436.4" font-family="Times,serif" font-weight="bold" font-size="12.00">P</text>
<polygon fill="WHITE" stroke="transparent" points="9,-413 9,-430 209,-430 209,-413 9,-413"/>
<text text-anchor="start" x="89.5" y="-419.4" font-family="Times,serif" font-weight="bold" font-size="12.00">part_fit</text>
<polygon fill="WHITE" stroke="transparent" points="209,-413 209,-430 409,-430 409,-413 209,-413"/>
<text text-anchor="start" x="302.5" y="-419.4" font-family="Times,serif" font-weight="bold" font-size="12.00">W</text>
<polygon fill="WHITE" stroke="transparent" points="9,-396 9,-413 209,-413 209,-396 9,-396"/>
<text text-anchor="start" x="83" y="-402.4" font-family="Times,serif" font-weight="bold" font-size="12.00">part_start</text>
<polygon fill="WHITE" stroke="transparent" points="209,-396 209,-413 409,-413 409,-396 209,-396"/>
<text text-anchor="start" x="299.5" y="-402.4" font-family="Times,serif" font-weight="bold" font-size="12.00">153</text>
<polygon fill="WHITE" stroke="transparent" points="9,-379 9,-396 209,-396 209,-379 9,-379"/>
<text text-anchor="start" x="86" y="-385.4" font-family="Times,serif" font-weight="bold" font-size="12.00">part_size</text>
<polygon fill="WHITE" stroke="transparent" points="209,-379 209,-396 409,-396 409,-379 209,-379"/>
<text text-anchor="start" x="296.5" y="-385.4" font-family="Times,serif" font-weight="bold" font-size="12.00">2048</text>
<polygon fill="WHITE" stroke="transparent" points="9,-362 9,-379 209,-379 209,-362 9,-362"/>
<text text-anchor="start" x="81" y="-368.4" font-family="Times,serif" font-weight="bold" font-size="12.00">part_name</text>
<polygon fill="WHITE" stroke="transparent" points="209,-362 209,-379 409,-379 409,-362 209,-362"/>
<text text-anchor="start" x="294.5" y="-368.4" font-family="Times,serif" font-weight="bold" font-size="12.00">Part1</text>
<polygon fill="#392250" stroke="transparent" points="9,-345 9,-362 409,-362 409,-345 9,-345"/>
<text text-anchor="start" x="11" y="-351.4" font-family="Times,serif" font-weight="bold" font-size="12.00" fill="WHITE">Partition</text>
<polygon fill="WHITE" stroke="transparent" points="9,-328 9,-345 209,-345 209,-328 9,-328"/>
<text text-anchor="start" x="80" y="-334.4" font-family="Times,serif" font-weight="bold" font-size="12.00">part_status</text>
<polygon fill="WHITE" stroke="transparent" points="209,-328 209,-345 409,-345 409,-328 209,-328"/>
<text text-anchor="start" x="305.5" y="-334.4" font-family="Times,serif" font-weight="bold" font-size="12.00">0</text>
<polygon fill="WHITE" stroke="transparent" points="9,-311 9,-328 209,-328 209,-311 9,-311"/>
<text text-anchor="start" x="84" y="-317.4" font-family="Times,serif" font-weight="bold" font-size="12.00">part_type</text>
<polygon fill="WHITE" stroke="transparent" points="209,-311 209,-328 409,-328 409,-311 209,-311"/>
<text text-anchor="start" x="305" y="-317.4" font-family="Times,serif" font-weight="bold" font-size="12.00">P</text>
<polygon fill="WHITE" stroke="transparent" points="9,-294 9,-311 209,-311 209,-294 9,-294"/>
<text text-anchor="start" x="89.5" y="-300.4" font-family="Times,serif" font-weight="bold" font-size="12.00">part_fit</text>
<polygon fill="WHITE" stroke="transparent" points="209,-294 209,-311 409,-311 409,-294 209,-294"/>
<text text-anchor="start" x="302.5" y="-300.4" font-family="Times,serif" font-weight="bold" font-size="12.00">W</text>
<polygon fill="WHITE" stroke="transparent" points="9,-277 9,-294 209,-294 209,-277 9,-277"/>
<text text-anchor="start" x="83" y="-283.4" font-family="Times,serif" font-weight="bold" font-size="12.00">part_start</text>
<polygon fill="WHITE" stroke="transparent" points="209,-277 209,-294 409,-294 409,-277 209,-277"/>
<text text-anchor="start" x="296.5" y="-283.4" font-family="Times,serif" font-weight="bold" font-size="12.00">2202</text>
<polygon fill="WHITE" stroke="transparent" points="9,-260 9,-277 209,-277 209,-260 9,-260"/>
<text text-anchor="start" x="86" y="-266.4" font-family="Times,serif" font-weight="bold" font-size="12.00">part_size</text>
<polygon fill="WHITE" stroke="transparent" points="209,-260 209,-277 409,-277 409,-260 209,-260"/>
<text text-anchor="start" x="296.5" y="-266.4" font-family="Times,serif" font-weight="bold" font-size="12.00">3072</text>
<polygon fill="WHITE" stroke="transparent" points="9,-243 9,-260 209,-260 209,-243 9,-243"/>
<text text-anchor="start" x="81" y="-249.4" font-family="Times,serif" font-weight="bold" font-size="12.00">part_name</text>
<polygon fill="WHITE" stroke="transparent" points="209,-243 209,-260 409,-260 409,-243 209,-243"/>
<text text-anchor="start" x="278.5" y="-249.4" font-family="Times,serif" font-weight="bold" font-size="12.00">Fukanzema</text>
<polygon fill="#392250" stroke="transparent" points="9,-226 9,-243 409,-243 409,-226 9,-226"/>
<text text-anchor="start" x="11" y="-232.4" font-family="Times,serif" font-weight="bold" font-size="12.00" fill="WHITE">Partition</text>
<polygon fill="WHITE" stroke="transparent" points="9,-209 9,-226 209,-226 209,-209 9,-209"/>
<text text-anchor="start" x="80" y="-215.4" font-family="Times,serif" font-weight="bold" font-size="12.00">part_status</text>
<polygon fill="WHITE" stroke="transparent" points="209,-209 209,-226 409,-226 409,-209 209,-209"/>
<text text-anchor="start" x="304" y="-215.4" font-family="Times,serif" font-weight="bold" font-size="12.00">&#45;1</text>
<polygon fill="WHITE" stroke="transparent" points="9,-192 9,-209 209,-209 209,-192 9,-192"/>
<text text-anchor="start" x="84" y="-198.4" font-family="Times,serif" font-weight="bold" font-size="12.00">part_type</text>
<polygon fill="WHITE" stroke="transparent" points="209,-192 209,-209 409,-209 409,-192 209,-192"/>
<text text-anchor="start" x="305" y="-198.4" font-family="Times,serif" font-weight="bold" font-size="12.00">P</text>
<polygon fill="WHITE" stroke="transparent" points="9,-175 9,-192 209,-192 209,-175 9,-175"/>
<text text-anchor="start" x="89.5" y="-181.4" font-family="Times,serif" font-weight="bold" font-size="12.00">part_fit</text>
<polygon fill="WHITE" stroke="transparent" points="209,-175 209,-192 409,-192 409,-175 209,-175"/>
<text text-anchor="start" x="305" y="-181.4" font-family="Times,serif" font-weight="bold" font-size="12.00">F</text>
<polygon fill="WHITE" stroke="transparent" points="9,-158 9,-175 209,-175 209,-158 9,-158"/>
<text text-anchor="start" x="83" y="-164.4" font-family="Times,serif" font-weight="bold" font-size="12.00">part_start</text>
<polygon fill="WHITE" stroke="transparent" points="209,-158 209,-175 409,-175 409,-158 209,-158"/>
<text text-anchor="start" x="304" y="-164.4" font-family="Times,serif" font-weight="bold" font-size="12.00">&#45;1</text>
<polygon fill="WHITE" stroke="transparent" points="9,-141 9,-158 209,-158 209,-141 9,-141"/>
<text text-anchor="start" x="86" y="-147.4" font-family="Times,serif" font-weight="bold" font-size="12.00">part_size</text>
<polygon fill="WHITE" stroke="transparent" points="209,-141 209,-158 409,-158 409,-141 209,-141"/>
<text text-anchor="start" x="304" y="-147.4" font-family="Times,serif" font-weight="bold" font-size="12.00">&#45;1</text>
<polygon fill="WHITE" stroke="transparent" points="9,-124 9,-141 209,-141 209,-124 9,-124"/>
<text text-anchor="start" x="81" y="-130.4" font-family="Times,serif" font-weight="bold" font-size="12.00">part_name</text>
<polygon fill="WHITE" stroke="transparent" points="209,-124 209,-141 409,-141 409,-124 209,-124"/>
<text text-anchor="start" x="307" y="-130.4" font-family="Times,serif" font-weight="bold" font-size="12.00"> </text>
<polygon fill="#392250" stroke="transparent" points="9,-107 9,-124 409,-124 409,-107 9,-107"/>
<text text-anchor="start" x="11" y="-113.4" font-family="Times,serif" font-weight="bold" font-size="12.00" fill="WHITE">Partition</text>
<polygon fill="WHITE" stroke="transparent" points="9,-90 9,-107 209,-107 209,-90 9,-90"/>
<text text-anchor="start" x="80" y="-96.4" font-family="Times,serif" font-weight="bold" font-size="12.00">part_status</text>
<polygon fill="WHITE" stroke="transparent" points="209,-90 209,-107 409,-107 409,-90 209,-90"/>
<text text-anchor="start" x="304" y="-96.4" font-family="Times,serif" font-weight="bold" font-size="12.00">&#45;1</text>
<polygon fill="WHITE" stroke="transparent" points="9,-73 9,-90 209,-90 209,-73 9,-73"/>
<text text-anchor="start" x="84" y="-79.4" font-family="Times,serif" font-weight="bold" font-size="12.00">part_type</text>
<polygon fill="WHITE" stroke="transparent" points="209,-73 209,-90 409,-90 409,-73 209,-73"/>
<text text-anchor="start" x="305" y="-79.4" font-family="Times,serif" font-weight="bold" font-size="12.00">P</text>
<polygon fill="WHITE" stroke="transparent" points="9,-56 9,-73 209,-73 209,-56 9,-56"/>
<text text-anchor="start" x="89.5" y="-62.4" font-family="Times,serif" font-weight="bold" font-size="12.00">part_fit</text>
<polygon fill="WHITE" stroke="transparent" points="209,-56 209,-73 409,-73 409,-56 209,-56"/>
<text text-anchor="start" x="305" y="-62.4" font-family="Times,serif" font-weight="bold" font-size="12.00">F</text>
<polygon fill="WHITE" stroke="transparent" points="9,-39 9,-56 209,-56 209,-39 9,-39"/>
<text text-anchor="start" x="83" y="-45.4" font-family="Times,serif" font-weight="bold" font-size="12.00">part_start</text>
<polygon fill="WHITE" stroke="transparent" points="209,-39 209,-56 409,-56 409,-39 209,-39"/>
<text text-anchor="start" x="304" y="-45.4" font-family="Times,serif" font-weight="bold" font-size="12.00">&#45;1</text>
<polygon fill="WHITE" stroke="transparent" points="9,-22 9,-39 209,-39 209,-22 9,-22"/>
<text text-anchor="start" x="86" y="-28.4" font-family="Times,serif" font-weight="bold" font-size="12.00">part_size</text>
<polygon fill="WHITE" stroke="transparent" points="209,-22 209,-39 409,-39 409,-22 209,-22"/>
<text text-anchor="start" x="304" y="-28.4" font-family="Times,serif" font-weight="bold" font-size="12.00">&#45;1</text>
<polygon fill="WHITE" stroke="transparent" points="9,-5 9,-22 209,-22 209,-5 9,-5"/>
<text text-anchor="start" x="81" y="-11.4" font-family="Times,serif" font-weight="bold" font-size="12.00">part_name</text>
<polygon fill="WHITE" stroke="transparent" points="209,-5 209,-22 409,-22 409,-5 209,-5"/>
<text text-anchor="start" x="307" y="-11.4" font-family="Times,serif" font-weight="bold" font-size="12.00"> </text>
<polygon fill="none" stroke="black" points="8,-4 8,-550 410,-550 410,-4 8,-4"/>
</g>
</g>
</svg>
